<svg xmlns="http://www.w3.org/2000/svg" xmlns:xlink="http://www.w3.org/1999/xlink" width="500" zoomAndPan="magnify" viewBox="0 0 375 374.999991" height="500" preserveAspectRatio="xMidYMid meet" version="1.0"><defs><clipPath id="608afedf83"><path d="M 41.8125 176 L 369 176 L 369 375 L 41.8125 375 Z M 41.8125 176 " clip-rule="nonzero"/></clipPath></defs><g clip-path="url(#608afedf83)"><path fill="#000000" d="M 103.179688 395.75 L 103.179688 295.140625 L 164.4375 295.140625 L 164.4375 395.75 C 164.4375 395.84375 164.449219 395.933594 164.453125 396.023438 L 103.167969 396.023438 C 103.171875 395.933594 103.179688 395.84375 103.179688 395.75 Z M 360.792969 176.21875 C 356.261719 176.21875 352.589844 179.890625 352.589844 184.421875 L 352.589844 396.023438 L 180.832031 396.023438 C 180.835938 395.933594 180.847656 395.84375 180.847656 395.75 L 180.847656 286.941406 C 180.847656 282.414062 177.171875 278.742188 172.644531 278.742188 L 94.976562 278.742188 C 90.445312 278.742188 86.769531 282.414062 86.769531 286.941406 L 86.769531 395.75 C 86.769531 395.84375 86.78125 395.933594 86.785156 396.023438 L 58.328125 396.023438 L 58.328125 184.421875 C 58.328125 179.890625 54.65625 176.21875 50.125 176.21875 C 45.59375 176.21875 41.921875 179.890625 41.921875 184.421875 L 41.921875 404.222656 C 41.921875 408.753906 45.59375 412.425781 50.125 412.425781 L 360.792969 412.425781 C 365.324219 412.425781 368.996094 408.753906 368.996094 404.222656 L 368.996094 184.421875 C 368.996094 179.890625 365.324219 176.21875 360.792969 176.21875 " fill-opacity="1" fill-rule="nonzero"/></g><path fill="#000000" d="M 407.28125 178.304688 L 210.929688 2.792969 C 207.816406 0.0078125 203.101562 0.0078125 199.992188 2.792969 L 3.636719 178.304688 C 0.257812 181.324219 -0.0351562 186.511719 2.988281 189.886719 C 6.007812 193.265625 11.195312 193.554688 14.574219 190.535156 L 205.460938 19.90625 L 396.34375 190.535156 C 397.910156 191.933594 399.863281 192.625 401.808594 192.625 C 404.0625 192.625 406.308594 191.699219 407.929688 189.886719 C 410.953125 186.511719 410.660156 181.324219 407.28125 178.304688 " fill-opacity="1" fill-rule="nonzero"/><path fill="#000000" d="M 311.566406 70.800781 C 316.101562 70.800781 319.773438 67.128906 319.773438 62.601562 L 319.773438 46.632812 L 352.589844 46.632812 L 352.589844 118.808594 C 352.589844 123.335938 356.261719 127.007812 360.792969 127.007812 C 365.324219 127.007812 368.996094 123.335938 368.996094 118.808594 L 368.996094 38.429688 C 368.996094 33.902344 365.324219 30.230469 360.792969 30.230469 L 311.566406 30.230469 C 307.035156 30.230469 303.363281 33.902344 303.363281 38.429688 L 303.363281 62.601562 C 303.363281 67.128906 307.035156 70.800781 311.566406 70.800781 " fill-opacity="1" fill-rule="nonzero"/><path fill="#000000" d="M 268.359375 200.550781 L 268.359375 223.515625 L 245.386719 223.515625 L 245.386719 200.550781 Z M 307.738281 223.515625 L 284.765625 223.515625 L 284.765625 200.550781 L 307.738281 200.550781 Z M 284.765625 262.882812 L 284.765625 239.917969 L 307.738281 239.917969 L 307.738281 262.882812 Z M 245.386719 239.917969 L 268.359375 239.917969 L 268.359375 262.882812 L 245.386719 262.882812 Z M 315.941406 279.289062 C 320.472656 279.289062 324.148438 275.617188 324.148438 271.085938 L 324.148438 192.347656 C 324.148438 187.820312 320.472656 184.144531 315.941406 184.144531 L 237.183594 184.144531 C 232.648438 184.144531 228.976562 187.820312 228.976562 192.347656 L 228.976562 271.085938 C 228.976562 275.617188 232.648438 279.289062 237.183594 279.289062 L 315.941406 279.289062 " fill-opacity="1" fill-rule="nonzero"/></svg>